<!-- Generated by IcoMoon.io -->
<svg version="1.1" xmlns="http://www.w3.org/2000/svg" width="32" height="32" viewBox="0 0 32 32">
<title>warning</title>
<path fill="#ffffff" d="M30.41 25.788l-12.955-21.384c-0.468-0.78-1.561-1.093-2.497-0.624-0.156 0.156-0.468 0.312-0.624 0.624l-12.799 21.384c-0.468 0.78-0.312 2.029 0.624 2.497 0.156 0 0.468 0.156 0.937 0.156h25.755c0.937 0 1.873-0.78 1.873-1.873-0.156-0.312-0.156-0.624-0.312-0.78zM15.894 10.803c0.624-0.156 1.249 0.468 1.405 1.093 0 0 0 0 0 0.156 0 2.185-0.312 5.463-0.312 7.804 0 0.624-0.624 0.78-1.093 0.78-0.624 0-1.093-0.312-1.093-0.78 0-2.185-0.312-5.463-0.312-7.804 0-0.78 0.624-1.249 1.405-1.249zM15.894 24.851v0c-0.78 0-1.405-0.624-1.405-1.405s0.624-1.405 1.405-1.405c0.78 0 1.405 0.624 1.405 1.405 0 0 0 0 0 0 0 0.78-0.624 1.405-1.405 1.405z"></path>
</svg>
